<svg xmlns="http://www.w3.org/2000/svg" viewBox="0 0 399.59 306.34"><defs><style>.cls-1{fill:#fff;}.cls-2{fill:#51ba49;}.cls-3{fill:#040607;}.cls-4{fill:#039645;}</style></defs><g id="Layer_2" data-name="Layer 2"><g id="Layer_2-2" data-name="Layer 2"><path class="cls-1" d="M191,7.36S67.58,27.5,39.71,41.36,5,69.83,5.36,90.45,2.72,188,7.34,198.26s12.22,18.49,23.12,22.13,19.16-3.64,31.05,7.26,36.71,45.73,73.87,61.76S221.44,301,253.73,287.1s75.53-62.42,86.15-73,25.19-16.18,34.75-21.47,21.78-18.16,21.12-32.36-2-105-2-105-5.57-24.81-19.13-32.41S308.55,6.7,288.41,6,222.35,3.73,191,7.36Z"/><path class="cls-2" d="M377.8,171.29C304.7,117.78,170.39,105,115.34,219.92c2.37,1.78,116.69,51,116.69,51C297.66,247.91,340.59,170.62,377.8,171.29Z"/><path class="cls-2" d="M117.88,66.81c.77-15.63,11.45-30.72,38.64-23.67C145.07,47.76,145,77.82,117.88,66.81Z"/><polygon class="cls-3" points="114.19 34.44 91.73 42.7 54.57 106.78 54.57 58.06 22.37 72.92 22.37 179.43 54.57 164.24 54.57 116.85 79.01 154.66 116.5 140.29 81.16 89.76 114.19 34.44"/><path class="cls-3" d="M117.88,76.72l.77,62.91,27.41-7.91V69.22Q132,83.11,117.88,76.72Z"/><path class="cls-3" d="M161.91,63.51V74.57s38.15-26.75,33,3.3c-44.18,2.64-51.22,35.67-37.32,46.57,8.42,6.61,29.56,4.63,40-15.19L200.22,121l21.47-3.13s-.08-35.3,0-47.07C221.76,62.15,214,40.06,161.91,63.51Zm32.86,38c0,6.4-17,16.54-16.67,0,.37-18.35,16.65-16.35,16.65-16.35S194.78,97.78,194.77,101.49Z"/><path class="cls-3" d="M374.63,77.56c.06-8.71-7.62-33.46-58.92-25.82V62.93s37.6-15.27,32.55,13.55c-43.54-11-50.48,20.25-36.78,35.57,8.3,9.29,29.13,13.81,39.39-3l2.6,12.68,21.16,3.46S374.54,89.43,374.63,77.56ZM348.1,100.31c0,6.47-16.77,11.48-16.44-5.15.37-18.44,16.42-11.39,16.42-11.39S348.11,96.56,348.1,100.31Z"/><path class="cls-3" d="M255.67,61.25l-2.44-12-24.44,1.33.66,65.88,27.09-1.81V68.17c14.47-11.48,17,2.6,17,2.6l.17,43.27,27.08.82V66C301.67,41,265.83,42.66,255.67,61.25Z"/><path class="cls-2" d="M187.69,306.34c-58.55,0-94.31-38.61-116-62L69,241.37A49.26,49.26,0,0,0,36.55,225.8l-2.1-.16a37.3,37.3,0,0,1-34.3-37L0,89.66A56,56,0,0,1,36.79,37h0C139.52-.17,246.33-9.4,354.27,9.61a54.77,54.77,0,0,1,45.32,54V164.78a36.91,36.91,0,0,1-25.13,35,86.63,86.63,0,0,0-36.53,24.06l-3,3.38c-23.44,26.19-67.07,75-139.84,78.91C192.58,306.27,190.11,306.34,187.69,306.34ZM40.54,47.38A45,45,0,0,0,11,89.65l.15,99a26.24,26.24,0,0,0,24.14,26l2.1.16a60.23,60.23,0,0,1,39.62,19l2.72,2.93c21.77,23.5,54.23,58.53,107.89,58.53,2.25,0,4.53-.06,6.86-.19,68.21-3.71,108.28-48.5,132.23-75.26l3.05-3.4A97.48,97.48,0,0,1,371,189.37a26,26,0,0,0,17.64-24.59V63.65a43.78,43.78,0,0,0-36.22-43.21c-106-18.67-210.94-9.61-311.83,26.94Z"/><path class="cls-4" d="M246.79,264.64c-27.3-81-92.91-135.41-222.82-66.27C122.83,201.89,115.34,325.19,246.79,264.64Z"/></g></g></svg>